# xmcd
#
# Track frame offsets: 
#        150
#        9275
#        21737
#        32729
#        45419
#        55518
#        67818
#        77999
#        83715
#        91001
#        102224
#        112182
#        120270
#        135347
#        143489
#        152842
#        163923
#        174929
#        184051
#        193043
#        204360
#        210887
#
# Disc length: 2957 seconds
#
# Revision: 8
# Processed by: cddbd v1.5.2PL0 Copyright (c) Steve Scherf et al.
# Submitted via: ExactAudioCopy v0.95b4
#
DISCID=0e0b8b16
DTITLE=Georges Delerue Et Georges Auric - Bandes Originales Des Films 
DTITLE=De Gérard Oury
DYEAR=2002
DGENRE=Soundtrack
TTITLE0=Le Corniaud (Générique)
TTITLE1=Le Corniaud - Départ De Naples
TTITLE2=Le Corniaud - A La Poursouite De Maréchal
TTITLE3=Le Corniaud - Antoine Et Ursula
TTITLE4=Le Corniaud - You Koun-Koun
TTITLE5=Le Corniaud - Casina Valladié
TTITLE6=Le Corniaud - La Danza
TTITLE7=La Grande Vadrouille - Sur Paris
TTITLE8=La Grande Vadrouille - Marche SS (Taches Blanches Sur Uniforme
TTITLE8=s Noirs)
TTITLE9=La Grande Vadrouille - Pense A Nous Deux
TTITLE10=La Grande Vadrouille - Rendez-Vous Au Gignol
TTITLE11=La Grande Vadrouille - Marche Hongroise
TTITLE12=Le Cerveau - The Brain (Par The American Breed)
TTITLE13=Le Cerveau - Sofia
TTITLE14=Le Cerveau - Anatole Et Arthur
TTITLE15=Le Cerveau - Java Contre Java
TTITLE16=Le Cerveau - L'Aquarium
TTITLE17=Le Cerveau - The Brain (Générique Par The American Breed)
TTITLE18=Le Cerveau - Train Postal
TTITLE19=Le Cerveau - Carnaby Street
TTITLE20=Le Cerveau - Du Havre À New York
TTITLE21=Le Cerveau - Grande Valse
EXTD=Bandes Originales des films de Gérard Oury (Le Corniaud - La Gran
EXTD=de Vadrouille - Le Cerveau )
EXTT0=
EXTT1=
EXTT2=
EXTT3=
EXTT4=
EXTT5=
EXTT6=
EXTT7=
EXTT8=
EXTT9=
EXTT10=
EXTT11=
EXTT12=
EXTT13=
EXTT14=
EXTT15=
EXTT16=
EXTT17=
EXTT18=
EXTT19=
EXTT20=
EXTT21=
PLAYORDER=
